<?xml version="1.0" encoding="utf-8"?>
<!-- Generator: Adobe Illustrator 24.2.0, SVG Export Plug-In . SVG Version: 6.00 Build 0)  -->
<svg version="1.1" id="Layer_1" xmlns="http://www.w3.org/2000/svg" xmlns:xlink="http://www.w3.org/1999/xlink" x="0px" y="0px"
	 viewBox="0 0 489.8 236.8" style="enable-background:new 0 0 489.8 236.8;" xml:space="preserve">
<g>
	<path style="fill:#FFFFFF;" d="M307.3,26.3c-2.8,0-5.6,0.3-8.3,1C295.4,11.7,281.5,0,264.8,0c-19.4,0-35.2,15.7-35.2,35.2
		c0,19.4,15.7,35.2,35.2,35.2c1.8,0,3.6-0.2,5.3-0.4c0.7,4.6,2.3,8.9,4.5,12.8c-0.6,1.6-2,3.3-4.8,3.8c-5.8-3.8-12.6-6-20-6
		c-20.1,0-36.4,16.3-36.4,36.4c0,20.1,16.3,36.4,36.4,36.4c12,0,22.6-5.8,29.2-14.7c1.2-0.3,2.3,0,3.3,0.5c1.4,4.3,5.5,7.4,10.3,7.4
		c6,0,10.9-4.9,10.9-10.9c0-6-4.9-10.9-10.9-10.9c-1.4,0-2.7,0.3-3.9,0.8c-1.5-0.9-2.4-1.9-2.9-2.9c0.3-1.8,0.5-3.8,0.5-5.7
		c0-5.9-1.5-11.5-4-16.5c0.8-1.9,2.4-3.6,5.6-4.2c5.7,3.4,12.3,5.4,19.4,5.4c20.8,0,37.7-16.9,37.7-37.7
		C345,43.2,328.1,26.3,307.3,26.3z"/>
	<path style="fill:#FFFFFF;" d="M91.5,233.8H54.8v-4c1,0,2.4-0.1,4.3-0.3c1.9-0.2,3.2-0.4,3.9-0.7c1.2-0.5,2.1-1.2,2.7-2.1
		c0.6-0.9,0.9-2.2,0.9-3.7v-29H25v28.4c0,1.3,0.2,2.5,0.7,3.4c0.5,0.9,1.4,1.7,2.9,2.4c0.7,0.3,2,0.7,3.8,1c1.8,0.3,3.3,0.5,4.3,0.6
		v4H0v-4c1,0,2.4-0.1,4.3-0.3c1.9-0.2,3.2-0.4,3.9-0.7c1.2-0.5,2.1-1.2,2.7-2.1c0.6-0.9,0.9-2.2,0.9-3.7v-58.7
		c0-1.3-0.3-2.4-0.8-3.4c-0.5-1-1.5-1.8-2.8-2.4c-1.1-0.5-2.5-0.9-4.1-1.3c-1.6-0.4-3-0.6-4.1-0.7v-4h36.8v4c-1.2,0-2.6,0.2-4.3,0.5
		c-1.7,0.3-3,0.6-3.8,0.9c-1.4,0.5-2.4,1.2-2.9,2.3c-0.5,1.1-0.7,2.2-0.7,3.5v25.4h41.5v-24.7c0-1.3-0.3-2.4-0.8-3.4
		c-0.5-1-1.5-1.8-2.8-2.4c-1.1-0.5-2.5-0.9-4.1-1.3c-1.6-0.4-3-0.6-4.1-0.7v-4h36.8v4c-1.2,0-2.6,0.2-4.3,0.5
		c-1.7,0.3-3,0.6-3.8,0.9c-1.4,0.5-2.4,1.2-2.9,2.3s-0.7,2.2-0.7,3.5v58.7c0,1.3,0.2,2.5,0.7,3.4c0.5,0.9,1.4,1.7,2.9,2.4
		c0.7,0.3,2,0.7,3.8,1c1.8,0.3,3.3,0.5,4.3,0.6V233.8z"/>
	<path style="fill:#FFFFFF;" d="M164.7,232.8l-20.4,1.3l-1-0.8v-7.1H143c-1,1-2.1,2-3.4,3.1c-1.3,1.1-2.7,2.1-4.3,2.9
		c-1.9,1-3.7,1.9-5.4,2.5s-4.2,0.9-7.4,0.9c-5.5,0-9.6-1.6-12.5-4.9c-2.9-3.3-4.3-8-4.3-14.3v-27.2c0-1.4-0.3-2.5-0.9-3.5
		c-0.6-0.9-1.4-1.8-2.5-2.5c-0.8-0.5-1.7-0.8-2.8-1c-1.1-0.2-2.3-0.3-3.6-0.4v-3.8l20.6-1.3l0.9,0.8V217c0,4.1,1,7.2,3,9.2
		s4.4,3.1,7.2,3.1c2.3,0,4.3-0.3,6.1-1c1.8-0.6,3.3-1.4,4.5-2.3c1.1-0.8,2.1-1.6,3-2.5c0.9-0.9,1.5-1.8,2-2.5v-32.2
		c0-1.3-0.3-2.4-0.9-3.4c-0.6-1-1.4-1.8-2.4-2.5c-0.7-0.5-1.9-0.7-3.3-0.8c-1.5-0.1-3.1-0.2-4.9-0.2v-3.8l22.3-1.3l0.9,0.8v44.7
		c0,1.3,0.3,2.4,0.9,3.3c0.6,0.9,1.4,1.7,2.5,2.4c0.8,0.4,1.7,0.7,2.8,0.8c1.1,0.1,2.3,0.2,3.5,0.3V232.8z"/>
	<path style="fill:#FFFFFF;" d="M213.1,224.6c-3.1,4.5-7.3,6.7-12.4,6.7c-2.3,0-4.3-0.3-5.9-1c-1.6-0.7-3-1.5-4.3-2.6
		c-1.3-1.1-2.3-2.2-3-3.5c-0.7-1.2-1.2-2.3-1.5-3.2v-32.8c1.8-1.8,3.8-3.3,6-4.3c2.2-1,4.8-1.6,7.7-1.6c3.2,0,6,0.7,8.3,2.1
		s4.2,3.2,5.6,5.4c1.4,2.2,2.5,4.8,3.1,7.7c0.7,2.9,1,5.8,1,8.6C217.9,213.9,216.3,220.1,213.1,224.6z M223.2,184.3
		c-5.1-5.5-11.5-8.2-19.1-8.2c-3,0-6,0.6-9.1,1.9c-3.1,1.3-5.9,3.1-8.5,5.6l-0.4-0.1v-37.3l-0.9-0.9l-23.1,1.3v3.8
		c1.2,0.1,2.7,0.3,4.6,0.5c1.9,0.3,3.3,0.6,4.1,1.1c1,0.6,1.9,1.5,2.5,2.8c0.7,1.3,1,2.6,1,3.9v55.8c0,3.7,0,7.5-0.1,11.5
		c-0.1,3.9-0.2,7.3-0.4,10.1l4,0.8l4.6-6.5c2.9,1.6,6,2.8,9.2,3.8c3.3,1,6.6,1.4,10,1.4c7.7,0,14.5-2.9,20.4-8.6
		c5.9-5.7,8.8-12.8,8.8-21.3C230.9,196.9,228.3,189.8,223.2,184.3z"/>
	<path style="fill:#FFFFFF;" d="M265.6,233.8h-29.8v-3.8c1-0.1,1.9-0.2,2.9-0.3c1-0.1,1.9-0.2,2.6-0.4c1.2-0.3,2-0.9,2.6-1.8
		c0.6-0.9,0.8-2,0.8-3.4v-34.7c0-1.2-0.3-2.4-0.9-3.4c-0.6-1-1.4-1.9-2.5-2.6c-0.8-0.5-1.9-0.8-3.4-1.1c-1.5-0.3-2.8-0.5-4-0.6v-3.8
		l21.6-1.3l0.9,0.8v45.9c0,1.3,0.3,2.4,0.8,3.3c0.6,0.9,1.4,1.5,2.6,2c0.9,0.3,1.8,0.6,2.6,0.8c0.9,0.2,1.8,0.4,2.9,0.4V233.8z"/>
	<path style="fill:#FFFFFF;" d="M318.2,233.8h-49.8v-2.8l35.2-49.2h-8.7c-3.6,0-6.5,0.1-8.6,0.2c-2.1,0.1-3.9,0.5-5.7,1.1
		c-1.2,0.4-2.3,1.7-3.3,3.7c-1,2-1.9,4.7-2.7,8h-4v-17.3h47.3v2.1l-35.6,49.9c1.5,0,3.1,0.1,4.9,0.1c1.8,0,3.7,0,5.8,0
		c1.7,0,3.4,0,5.2-0.1c1.8,0,4.1-0.1,6.9-0.3c1.7-0.1,2.9-0.6,3.8-1.6c0.8-1,1.5-2.1,2-3.4c0.5-1.1,1-2.7,1.6-4.7
		c0.6-2,1.2-4,1.7-5.9h4V233.8z"/>
	<path style="fill:#FFFFFF;" d="M390.3,233.8h-30.5v-3.8c1-0.1,2.1-0.2,3.3-0.3c1.2-0.1,2.2-0.2,2.9-0.4c1.2-0.3,2.1-0.9,2.7-1.8
		c0.6-0.9,0.9-2,0.9-3.4v-28.9c0-4-1-7.1-3.1-9.2c-2.1-2.2-4.6-3.3-7.5-3.3c-2.2,0-4.2,0.3-6,1c-1.8,0.6-3.4,1.4-4.9,2.3
		c-1.4,0.9-2.5,1.8-3.3,2.8c-0.8,1-1.4,1.8-1.8,2.4v32.3c0,1.3,0.3,2.4,0.9,3.2c0.6,0.9,1.5,1.5,2.7,2c0.9,0.4,1.9,0.6,2.9,0.8
		c1,0.2,2.1,0.3,3.2,0.4v3.8h-30.5v-3.8c1-0.1,1.9-0.2,2.9-0.3c1-0.1,1.9-0.2,2.6-0.4c1.2-0.3,2-0.9,2.6-1.8c0.6-0.9,0.8-2,0.8-3.4
		v-34.7c0-1.3-0.3-2.5-0.9-3.6c-0.6-1.1-1.4-2-2.5-2.6c-0.8-0.5-1.7-0.8-2.8-1c-1.1-0.2-2.3-0.4-3.5-0.4v-3.8l20.6-1.3l0.9,0.8v8
		h0.3c1-0.9,2.2-2,3.7-3.3c1.5-1.3,2.9-2.3,4.2-3.1c1.5-0.9,3.4-1.7,5.5-2.3c2.1-0.6,4.5-0.9,7.1-0.9c5.9,0,10.3,1.7,13.1,5
		c2.8,3.4,4.3,7.8,4.3,13.4v29.3c0,1.3,0.3,2.4,0.8,3.2c0.5,0.8,1.4,1.5,2.6,1.9c1,0.4,1.9,0.6,2.6,0.8c0.7,0.1,1.8,0.3,3,0.3V233.8
		z"/>
	<path style="fill:#FFFFFF;" d="M406.1,199.3c0.3-6,1.8-10.6,4.7-14c2.9-3.4,6.5-5,10.8-5c2.6,0,4.7,0.6,6.4,1.7
		c1.7,1.1,3,2.5,3.9,4.3c0.9,1.7,1.5,3.7,1.9,6.2c0.4,2.4,0.6,4.7,0.6,6.9H406.1z M444.1,218.3c-2.5,4.1-5.1,7-7.8,8.6
		c-2.7,1.6-5.9,2.4-9.6,2.4c-3.6,0-6.8-0.6-9.4-1.9c-2.6-1.3-4.8-3-6.4-5.2c-1.7-2.3-2.9-5-3.7-8c-0.8-3-1.2-6.4-1.2-10.1h40.8v-3.8
		c0-3.4-0.5-6.5-1.4-9.4c-0.9-2.9-2.4-5.4-4.3-7.5c-2-2.2-4.6-4-7.8-5.3c-3.2-1.3-7.1-2-11.6-2c-4.4,0-8.3,0.8-11.8,2.5
		c-3.5,1.7-6.5,3.8-8.8,6.5c-2.5,2.8-4.3,6-5.6,9.5c-1.3,3.5-1.9,7.1-1.9,10.8c0,4.1,0.6,7.9,1.8,11.6c1.2,3.7,3,6.9,5.4,9.6
		c2.4,2.8,5.5,4.9,9.2,6.5c3.7,1.6,8.1,2.4,13,2.4c5.6,0,10.6-1.3,14.9-4c4.3-2.7,7.8-6.3,10.4-10.8L444.1,218.3z"/>
	<path style="fill:#FFFFFF;" d="M489.8,231.5c-2.7,1-5.3,1.9-7.7,2.6c-2.4,0.7-5.4,1-8.8,1c-5.1,0-8.8-1.2-10.9-3.6
		c-2.1-2.4-3.1-5.8-3.1-10.2v-38.3h-11v-5.5h11.3v-17.5h11.4v17.5h17.6v5.5H471v31.7c0,2.4,0.1,4.4,0.3,6c0.2,1.6,0.6,3,1.3,4.2
		c0.7,1.1,1.7,1.9,3,2.5c1.3,0.6,3.1,0.9,5.3,0.9c1,0,2.6-0.1,4.6-0.3c2-0.2,3.4-0.4,4.3-0.7V231.5z"/>
</g>
</svg>
